<?xml version="1.0" standalone="no"?>
<!DOCTYPE svg PUBLIC "-//W3C//DTD SVG 20010904//EN"
 "http://www.w3.org/TR/2001/REC-SVG-20010904/DTD/svg10.dtd">
<svg version="1.0" xmlns="http://www.w3.org/2000/svg"
 width="64.000000pt" height="64.000000pt" viewBox="0 0 64.000000 64.000000"
 preserveAspectRatio="xMidYMid meet">

<g transform="translate(0.000000,64.000000) scale(0.100000,-0.100000)"
fill="#000000" stroke="none">
<path d="M72 567 c-21 -22 -22 -31 -22 -248 0 -296 -27 -269 271 -269 296 0
269 -27 269 271 0 296 27 269 -271 269 -223 0 -226 0 -247 -23z m483 -246 c0
-179 -3 -235 -12 -239 -7 -2 -13 3 -13 10 0 22 -39 54 -92 77 -55 23 -60 44
-31 109 17 38 27 131 18 168 -8 36 -72 67 -123 61 -68 -8 -87 -33 -88 -118 -1
-57 4 -80 23 -116 30 -58 23 -79 -35 -104 -53 -23 -92 -55 -92 -77 0 -7 -6
-12 -12 -10 -10 4 -14 60 -16 229 -1 123 0 229 3 236 3 11 54 13 237 11 l233
-3 0 -234z m-194 149 l40 -21 -2 -66 c-1 -40 -9 -80 -20 -104 -20 -40 -24 -76
-11 -95 4 -6 35 -25 68 -42 34 -17 64 -38 67 -47 6 -13 -16 -15 -183 -15 -167
0 -189 2 -183 15 3 9 33 30 67 47 33 17 64 36 68 42 13 20 8 65 -10 98 -12 22
-20 56 -21 99 -2 69 10 91 54 102 11 2 21 5 23 6 1 0 21 -8 43 -19z"/>
</g>
</svg>
