<?xml version="1.0" standalone="no"?>
<!DOCTYPE svg PUBLIC "-//W3C//DTD SVG 20010904//EN"
 "http://www.w3.org/TR/2001/REC-SVG-20010904/DTD/svg10.dtd">
<svg version="1.0" xmlns="http://www.w3.org/2000/svg"
 width="64.000000pt" height="64.000000pt" viewBox="0 0 64.000000 64.000000"
 preserveAspectRatio="xMidYMid meet">

<g transform="translate(0.000000,64.000000) scale(0.100000,-0.100000)"
fill="#fff" stroke="none">
<path d="M440 295 l0 -295 85 0 85 0 0 295 0 295 -85 0 -85 0 0 -295z"/>
<path d="M30 210 l0 -210 85 0 85 0 0 210 0 210 -85 0 -85 0 0 -210z"/>
<path d="M230 140 l0 -140 90 0 90 0 0 140 0 140 -90 0 -90 0 0 -140z"/>
</g>
</svg>
