<?xml version="1.0" standalone="no"?>
<!DOCTYPE svg PUBLIC "-//W3C//DTD SVG 20010904//EN"
 "http://www.w3.org/TR/2001/REC-SVG-20010904/DTD/svg10.dtd">
<svg version="1.0" xmlns="http://www.w3.org/2000/svg"
 width="400.000000pt" height="300.000000pt" viewBox="0 0 400.000000 300.000000"
 preserveAspectRatio="xMidYMid meet">

<g transform="translate(0.000000,300.000000) scale(0.100000,-0.100000)"
fill="#000000" stroke="none">
<path d="M2244 2466 c-10 -26 4 -48 28 -44 17 2 23 10 23 28 0 18 -6 26 -23
28 -13 2 -25 -3 -28 -12z m42 -7 c10 -17 -13 -36 -27 -22 -12 12 -4 33 11 33
5 0 12 -5 16 -11z"/>
<path d="M2545 2288 c-9 -23 -2 -83 10 -83 14 0 19 75 6 88 -7 7 -12 5 -16 -5z"/>
<path d="M2632 2224 c-43 -36 -52 -54 -29 -54 13 0 87 70 87 83 0 15 -18 6
-58 -29z"/>
<path d="M2620 2130 c0 -5 23 -10 50 -10 28 0 50 5 50 10 0 6 -22 10 -50 10
-27 0 -50 -4 -50 -10z"/>
<path d="M1473 2112 c-10 -11 -13 -126 -13 -608 l0 -594 -267 -3 c-148 -1 222
-2 822 -2 600 0 970 2 822 5 l-267 5 -3 597 c-1 328 -6 600 -10 604 -4 5 -247
8 -539 9 -430 0 -534 -2 -545 -13z m1072 -47 c3 -22 5 -287 3 -590 l-3 -550
-532 -3 -533 -2 0 588 c0 324 2 591 4 593 2 2 241 4 530 4 l526 0 5 -40z"/>
<path d="M1815 1649 c-10 -30 18 -58 43 -43 9 6 17 22 17 35 0 34 -50 41 -60
8z"/>
<path d="M2151 1656 c-22 -26 10 -63 43 -50 35 13 24 64 -14 64 -10 0 -23 -6
-29 -14z"/>
<path d="M1964 1459 c-17 -5 -39 -18 -49 -29 -16 -18 -16 -20 -1 -26 9 -3 33
2 53 11 32 15 43 16 78 6 79 -24 85 -24 85 -7 0 20 -73 56 -110 55 -14 0 -39
-5 -56 -10z"/>
<path d="M1232 2108 c-45 -22 -36 -91 13 -104 61 -15 103 65 53 100 -26 18
-34 19 -66 4z m49 -18 c31 -17 18 -70 -17 -70 -14 0 -44 27 -44 40 0 9 28 40
36 40 3 0 14 -5 25 -10z"/>
<path d="M2699 1315 c0 0 -2 -10 -3 -22 -2 -19 2 -23 24 -23 23 0 27 4 23 23
-4 18 -27 30 -44 22z"/>
<path d="M1852 650 c0 -41 2 -47 7 -25 3 17 13 30 21 30 8 0 18 -13 22 -30 6
-29 6 -29 5 5 -2 28 -7 36 -24 38 -12 2 -24 11 -26 20 -3 9 -5 -8 -5 -38z"/>
<path d="M1742 678 c-18 -18 -14 -56 7 -68 31 -16 49 -12 67 15 16 24 16 27
-1 45 -20 22 -55 26 -73 8z m56 -10 c18 -18 15 -36 -7 -48 -28 -14 -55 13 -41
41 12 22 30 25 48 7z"/>
<path d="M2282 660 c0 -19 2 -27 5 -17 2 9 2 25 0 35 -3 9 -5 1 -5 -18z"/>
<path d="M1983 663 c-7 -2 -13 -15 -13 -28 0 -28 36 -44 54 -25 8 10 7 12 -6
7 -22 -8 -47 21 -28 33 7 4 20 6 28 2 10 -3 13 -1 8 6 -7 12 -22 14 -43 5z"/>
<path d="M2050 634 c0 -19 5 -34 10 -34 6 0 10 10 10 23 0 13 4 27 10 33 6 6
3 10 -10 11 -16 1 -20 -4 -20 -33z"/>
<path d="M2110 660 c0 -6 5 -8 10 -5 6 3 16 3 22 -1 9 -6 5 -10 -12 -14 -35
-8 -32 -35 3 -36 26 -1 28 2 25 30 -2 23 -9 32 -25 34 -13 2 -23 -2 -23 -8z
m35 -40 c-3 -5 -10 -10 -16 -10 -5 0 -9 5 -9 10 0 6 7 10 16 10 8 0 12 -4 9
-10z"/>
<path d="M2189 666 c-6 -8 -5 -86 2 -86 5 0 9 6 9 14 0 9 7 12 18 9 26 -6 49
24 35 45 -7 13 -57 26 -64 18z m48 -22 c8 -20 -8 -36 -26 -25 -15 10 -8 41 9
41 6 0 13 -7 17 -16z"/>
</g>
</svg>
